<?xml version="1.0" encoding="UTF-8" standalone="no"?>
<!-- Generator: Adobe Illustrator 19.2.1, SVG Export Plug-In . SVG Version: 6.00 Build 0)  -->

<svg
   xmlns:dc="http://purl.org/dc/elements/1.1/"
   xmlns:cc="http://creativecommons.org/ns#"
   xmlns:rdf="http://www.w3.org/1999/02/22-rdf-syntax-ns#"
   xmlns:svg="http://www.w3.org/2000/svg"
   xmlns="http://www.w3.org/2000/svg"
   xmlns:sodipodi="http://sodipodi.sourceforge.net/DTD/sodipodi-0.dtd"
   xmlns:inkscape="http://www.inkscape.org/namespaces/inkscape"
   version="1.1"
   id="Ńëîé_1"
   x="0px"
   y="0px"
   viewBox="0 0 740.4 610.4"
   xml:space="preserve"
   inkscape:version="0.91 r13725"
   sodipodi:docname="ED2.svg"
   width="740.40002"
   height="610.40002"><metadata
     id="metadata3438"><rdf:RDF><cc:Work
         rdf:about=""><dc:format>image/svg+xml</dc:format><dc:type
           rdf:resource="http://purl.org/dc/dcmitype/StillImage" /><dc:title></dc:title></cc:Work></rdf:RDF></metadata><defs
     id="defs3436" /><sodipodi:namedview
     pagecolor="#ffffff"
     bordercolor="#666666"
     borderopacity="1"
     objecttolerance="10"
     gridtolerance="10"
     guidetolerance="10"
     inkscape:pageopacity="0"
     inkscape:pageshadow="2"
     inkscape:window-width="1920"
     inkscape:window-height="1016"
     id="namedview3434"
     showgrid="false"
     inkscape:zoom="0.68515519"
     inkscape:cx="472.66732"
     inkscape:cy="360.25022"
     inkscape:window-x="0"
     inkscape:window-y="27"
     inkscape:window-maximized="1"
     inkscape:current-layer="Ńëîé_1" /><style
     type="text/css"
     id="style3408">
	.st0{fill-rule:evenodd;clip-rule:evenodd;fill:#FCF8ED;}
	.st1{fill:#FFB734;}
	.st2{fill:#FF6B6B;}
	.st3{fill:#C7F465;}
	.st4{fill-rule:evenodd;clip-rule:evenodd;fill:#4ECDC4;}
	.st5{fill-rule:evenodd;clip-rule:evenodd;fill:#865EA4;}
	.st6{fill-rule:evenodd;clip-rule:evenodd;fill:#FF6B6B;}
</style><polygon
     class="st1"
     points="169.8,705.2 396.8,705.2 396.8,639.2 250.6,639.2 250.6,558.8 169.8,595.8 "
     id="polygon3414"
     transform="translate(-99.247588,-98.42628)"
     style="fill:#ffb734" /><path
     class="st2"
     d="m 39.952412,544.37374 111.299998,-64.3 0,60.7 7.1,0 -118.399998,68.4 0,-64.8 z m 120.399998,-88.1 32.3,0 31.4,0 58.3,0 0,-55.9 -122,55.9 z"
     id="path3416"
     inkscape:connector-curvature="0"
     style="fill:#ff6b6b" /><polygon
     class="st3"
     points="250.6,415.3 389.5,415.3 389.5,349.3 169.8,349.3 169.8,556.2 322.5,489.2 250.6,489.2 "
     id="polygon3418"
     transform="translate(-99.247588,-98.42628)"
     style="fill:#c7f465" /><polygon
     class="st4"
     points="250.6,489.2 293.1,489.2 128.5,584.2 128.5,519.5 250.6,449 "
     id="polygon3420"
     transform="translate(-99.247588,-98.42628)"
     style="clip-rule:evenodd;fill:#4ecdc4;fill-rule:evenodd" /><polygon
     class="st5"
     points="250.6,554.7 250.6,578.5 104,663.1 104,598.3 293.1,489.2 381.5,489.2 381.5,502.9 291.8,554.7 "
     id="polygon3422"
     transform="translate(-99.247588,-98.42628)"
     style="clip-rule:evenodd;fill:#865ea4;fill-rule:evenodd" /><path
     class="st3"
     d="m 701.95241,70.773724 c -7.5,-9.4 -16.2,-17.5 -25.7,-24.6 -34.3,-25.9 -78.2,-38.0000048 -145.7,-38.0000048 -40.7,0 -79.2,2.7000048 -108.8,7.4000048 l 0,216.700016 80.8,-46.5 0,-112.700016 c 6.9,-1.6 18.5,-3.2 36.5,-3.2 41.5,0 73.7,14.100004 92.7,41.400016 l 70.2,-40.500016 z"
     id="path3424"
     inkscape:connector-curvature="0"
     style="fill:#c7f465" /><path
     class="st1"
     d="m 421.65241,365.07374 c 20.1,2.7 49.6,5.3 91.4,5.3 69.7,0 126.7,-14.8 164.2,-46 34.3,-29 59.1,-76 59.1,-144.2 0,-0.9 0,-1.7 0,-2.5 l -91.2,51.2 c -14.6,53.5 -56.6,79 -114.8,78.6 -8.1,0 -16.9,0 -23.6,-0.9 l -85.1,47.8 0,10.7 z"
     id="path3426"
     inkscape:connector-curvature="0"
     style="fill:#ffb734" /><path
     class="st4"
     d="m 346.45241,237.07374 156,-90.1 0,64.8 -156,90 0,-64.7 z m 259.8,-150.000012 70.3,-40.600004 c 15.2,11.4 28.1,25.6 38,42.800004 l -72.4,41.800012 c -7.5,-19.1 -19.7,-33.800008 -35.9,-44.000012 l 0,0 z"
     id="path3428"
     inkscape:connector-curvature="0"
     style="clip-rule:evenodd;fill:#4ecdc4;fill-rule:evenodd" /><path
     class="st5"
     d="m 321.65241,316.07374 180.8,-104.3 0,64.7 -180.5,104.2 -0.3,-64.6 z m 320.5,-185 72.4,-41.800012 c 8.9,15.500012 15.3,33.400012 18.8,53.900012 l -82.7,47.7 c 0.1,-2.6 0.1,-5.3 0.1,-8 0.2,-19.8 -2.8,-37.1 -8.6,-51.8 l 0,0 z"
     id="path3430"
     inkscape:connector-curvature="0"
     style="clip-rule:evenodd;fill:#865ea4;fill-rule:evenodd" /><path
     class="st6"
     d="m 392.15241,340.17374 110.3,-63.7 0,29.5 c 6.9,1.6 18,1.6 28,1.6 13.2,0.1 25.5,-1.1 36.9,-3.7 l -175.2,101.1 0,-64.8 z m 258.5,-149.3 82.7,-47.7 c 2,11.5 3,23.9 3,37.1 0,9.3 -0.4,18.2 -1.3,26.7 l -111.5,64.4 c 16.2,-19 25.9,-45.8 27.1,-80.5 l 0,0 z"
     id="path3432"
     inkscape:connector-curvature="0"
     style="clip-rule:evenodd;fill:#ff6b6b;fill-rule:evenodd" /></svg>